<?xml version="1.0" encoding="utf-8"?>
<!-- Generator: Adobe Illustrator 24.3.0, SVG Export Plug-In . SVG Version: 6.00 Build 0)  -->
<svg version="1.1" id="Layer_1" xmlns="http://www.w3.org/2000/svg" xmlns:xlink="http://www.w3.org/1999/xlink" x="0px" y="0px"
	 viewBox="0 0 2000 462.18" style="enable-background:new 0 0 2000 462.18;" xml:space="preserve">
<style type="text/css">
	.st0{fill:#333333;}
	.st1{fill:#2980B9;}
	.st2{fill:#FCFCFC;}
	.st3{fill:none;}
</style>
<circle class="st0" cx="225" cy="223.45" r="221.89"/>
<circle class="st1" cx="240.4" cy="238.29" r="221.89"/>
<g>
	<path class="st2" d="M240.94,324.31l-0.93,2.24l-67.96-190.78c-0.99-2.77-3.61-4.62-6.54-4.62h-0.02c-4.8,0-8.15,4.75-6.55,9.27
		l30.22,85.11l-35.66,99.92L85.97,135.77c-0.99-2.77-3.61-4.62-6.54-4.62h0c-4.8,0-8.16,4.76-6.54,9.28l72.36,202.62
		c0.71,1.98,2.59,3.31,4.7,3.31h7.42c2.11,0,3.99-1.33,4.7-3.31l34.48-96.91l34.48,96.91c0.71,1.99,2.59,3.31,4.7,3.31h7.72
		c2.11,0,3.99-1.32,4.7-3.31l0.19-0.53c0.57-1.59,0.23-3.31-0.73-4.69C244.76,333.71,244.65,329.09,240.94,324.31z"/>
	<g>
		<path class="st2" d="M327.23,134.62l80.74,204.92c1.29,3.27-1.12,6.81-4.64,6.81h-4.35c-2.05,0-3.89-1.25-4.64-3.16l-15.36-38.96
			c-11.07,4.3-29.82,9.22-57.49,9.22c-27.98,0-47.04-5.22-57.8-9.53l-15.07,39.23c-0.74,1.93-2.59,3.2-4.65,3.2h-4.36
			c-3.5,0-5.91-3.52-4.65-6.79l79.28-204.91c1.04-2.68,3.61-4.44,6.48-4.44h0.04C323.62,130.22,326.18,131.97,327.23,134.62z
			 M373.76,291.32l-52.88-134.66l-51.96,134.35c1.85,0.62,4,1.54,6.46,2.15c9.22,3.07,24.6,6.46,46.12,6.46
			C347.32,299.62,364.54,295.01,373.76,291.32z"/>
	</g>
</g>
<g>
	<path class="st0" d="M786.06,124.49l-79.24,221.87H691.6l-36.77-103.33l-36.77,103.33h-14.9l-79.24-221.87h15.21l71.31,200.32
		l36.77-103.01l-34.55-97.31h15.21l71.32,200.32l71.63-200.32H786.06z"/>
	<path class="st0" d="M829.16,346.36h-14.58v-216.8l5.07-1.58c2.85-0.63,71.31-21.55,109.98,6.97
		c17.12,12.68,25.67,32.33,25.67,58.64c0,26.31-8.56,46.28-25.67,58.64c-30.75,22.82-80.19,14.26-100.47,9.51V346.36z
		 M829.16,246.83c15.53,4.12,64.66,13.95,91.92-6.34c13.31-9.51,19.65-25.36,19.65-46.91c0-21.55-6.34-37.08-19.65-46.91
		c-27.58-20.29-76.39-10.14-91.92-6.34V246.83z"/>
	<path class="st0" d="M1159.11,123.54l87.8,222.82h-15.53l-17.12-43.42c-11.41,4.44-30.74,9.51-59.27,9.51
		c-28.84,0-48.49-5.39-59.59-9.83l-16.8,43.74h-15.53l86.21-222.82H1159.11z M1208.87,289.62l-54.52-138.83l-53.57,138.51
		c1.9,0.63,4.12,1.58,6.66,2.22c9.51,3.17,25.36,6.66,47.54,6.66C1181.62,298.18,1199.37,293.43,1208.87,289.62z"/>
	<path class="st0" d="M1363.23,266.17l47.54,80.19h-16.8l-46.28-78.29c-21.55,1.58-42.79-2.54-54.52-5.39v83.68h-14.58V129.88
		l5.07-1.58c2.85-0.95,71-21.87,109.98,6.66c17.12,12.68,25.67,32.65,25.67,59.27s-8.56,46.59-25.67,59.27
		C1384.47,259.83,1374.33,263.95,1363.23,266.17z M1385.1,241.76c13-9.83,19.65-25.67,19.65-47.54s-6.66-37.72-19.65-47.54
		c-27.58-20.29-76.39-10.14-91.92-6.02v107.13C1308.72,251.9,1357.53,262.05,1385.1,241.76z"/>
	<path class="st0" d="M1587.32,332.09v14.26h-129.95V124.17h126.15v14.26h-111.57v111.89h85.58v14.58h-85.58v67.19H1587.32z"/>
	<path class="st0" d="M1784.47,124.17v222.19h-10.46l-134.39-192.08v192.08h-14.26V124.49h11.09l133.44,191.12V124.17H1784.47z"/>
	<path class="st0" d="M1912.2,123.54l87.8,222.82h-15.53l-17.12-43.42c-11.41,4.44-30.75,9.51-59.27,9.51
		c-28.84,0-48.49-5.39-59.59-9.83l-16.8,43.74h-15.53l86.21-222.82H1912.2z M1961.97,289.62l-54.52-138.83l-53.57,138.51
		c1.9,0.63,4.12,1.58,6.66,2.22c9.51,3.17,25.36,6.66,47.54,6.66C1934.71,298.18,1952.46,293.43,1961.97,289.62z"/>
</g>
<rect id="_x3C_Slice_x3E_" x="2.59" y="1.35" class="st3" width="1998" height="459"/>
</svg>
